<svg style="display:none;" xmlns="http://www.w3.org/2000/svg">

  <symbol id="arrow-left" width="51" height="16" viewBox="0 0 51 16">
    <g>
      <path d="M0.292892 7.29289C-0.0976295 7.68342 -0.0976295 8.31658 0.292892 8.70711L6.65685 15.0711C7.04738 15.4616 7.68054 15.4616 8.07107 15.0711C8.46159 14.6805 8.46159 14.0474 8.07107 13.6569L2.41422 8L8.07107 2.34315C8.46159 1.95262 8.46159 1.31946 8.07107 0.928932C7.68054 0.538408 7.04738 0.538408 6.65685 0.928932L0.292892 7.29289ZM51 7L1 7V9L51 9V7Z"/>
    </g>
  </symbol>

  <symbol id="arrow-right" width="51" height="16" viewBox="0 0 51 16">
    <g>
      <path d="M50.7071 8.70711C51.0976 8.31658 51.0976 7.68342 50.7071 7.29289L44.3431 0.928932C43.9526 0.538408 43.3195 0.538408 42.9289 0.928932C42.5384 1.31946 42.5384 1.95262 42.9289 2.34315L48.5858 8L42.9289 13.6569C42.5384 14.0474 42.5384 14.6805 42.9289 15.0711C43.3195 15.4616 43.9526 15.4616 44.3431 15.0711L50.7071 8.70711ZM0 9H50V7H0V9Z"/>
    </g>
  </symbol>

  <symbol id="cart" width="24" height="24" viewBox="0 0 24 24">
    <g>
      <path fill-rule="evenodd" clip-rule="evenodd" d="M16.5284 6C16.5097 5.9193 16.4903 5.83842 16.47 5.75746C16.206 4.70138 15.7903 3.55383 15.1124 2.65C14.4134 1.71802 13.3928 1 11.9999 1C10.607 1 9.58642 1.71802 8.88743 2.65C8.20956 3.55383 7.79381 4.70138 7.52979 5.75747C7.50955 5.83842 7.4901 5.9193 7.47139 6H5.87104C4.29165 6 2.98275 7.22455 2.87769 8.80044L2.14435 19.8004C2.02892 21.532 3.40232 23 5.13771 23H18.8621C20.5975 23 21.9709 21.532 21.8555 19.8004L21.1221 8.80044C21.0171 7.22455 19.7082 6 18.1288 6H16.5284ZM7.47139 14.5C8.04437 14.5 8.998 10.5684 8.99995 9.99817C9.0001 9.97438 9.00038 9.9506 9.00078 9.92682C9.00166 9.87413 9.00345 9.79455 9.00712 9.69194C9.01445 9.48652 9.02924 9.18999 9.05899 8.83304C9.08009 8.57976 9.10852 8.29862 9.14668 8H14.8532C14.8913 8.29862 14.9197 8.57976 14.9409 8.83305C14.9706 9.18999 14.9854 9.48652 14.9927 9.69194C14.9964 9.79455 14.9982 9.87413 14.9991 9.92682C14.9995 9.95134 14.9998 9.97587 14.9999 10.0004C14.9999 10.0004 15.47 14.5 16.47 14.5C17.47 14.5 16.9999 9.99866 16.9999 9.99866C16.9998 9.9636 16.9994 9.92854 16.9988 9.89349C16.9977 9.829 16.9956 9.7367 16.9914 9.62056C16.9832 9.38848 16.9667 9.06001 16.9339 8.66695C16.9169 8.46202 16.8952 8.23812 16.8678 8H18.1288C18.6553 8 19.0916 8.40818 19.1266 8.93348L19.8599 19.9335C19.8984 20.5107 19.4406 21 18.8621 21H5.13771C4.55925 21 4.10145 20.5107 4.13992 19.9335L4.87326 8.93348C4.90828 8.40818 5.34458 8 5.87104 8H7.13202C7.10459 8.23812 7.08297 8.46202 7.06589 8.66696C7.03314 9.06001 7.01668 9.38848 7.00839 9.62056C7.00424 9.7367 7.00213 9.829 7.00106 9.89349C7.00048 9.92785 7.00005 9.96221 6.99994 9.99658C6.99918 10.5672 6.89972 14.5 7.47139 14.5ZM9.53346 6H14.4664C14.2352 5.15322 13.9209 4.39466 13.5124 3.85C13.0864 3.28198 12.607 3 11.9999 3C11.3928 3 10.9134 3.28198 10.4874 3.85C10.0789 4.39466 9.76466 5.15322 9.53346 6Z"/>
    </g>
  </symbol>

  <symbol id="favorites" width="24" height="24" viewBox="0 0 24 24">
    <g>
      <path d="M3.48883 6.00387C2.76317 7.24787 2.52434 8.97403 2.9702 10.7575C3.13065 11.3992 3.59709 12.2243 4.33633 13.174C5.06122 14.1052 5.98646 15.0787 6.96642 16.0127C8.90951 17.8648 11.0007 19.4985 12.0001 20.254C12.9995 19.4985 15.0906 17.8648 17.0337 16.0127C18.0137 15.0787 18.9389 14.1052 19.6638 13.174C20.4031 12.2243 20.8695 11.3992 21.03 10.7575C21.4758 8.97403 21.237 7.24787 20.5113 6.00387C19.803 4.78965 18.6203 4 17.0001 4C15.5905 4 14.597 5.04228 13.8945 6.44721C13.557 7.12228 13.3276 7.80745 13.1824 8.33015C13.1103 8.58959 13.0603 8.80435 13.0287 8.95172C12.9168 9.47392 12.3144 9.5 12.0001 9.5C11.6858 9.5 11.0824 9.46905 10.9715 8.95172C10.9399 8.80436 10.8899 8.58959 10.8178 8.33015C10.6726 7.80745 10.4432 7.12229 10.1057 6.44722C9.40314 5.04228 8.40962 4 7.00004 4C5.37985 4 4.19712 4.78965 3.48883 6.00387ZM12.0001 5.77011C12.0342 5.69784 12.0694 5.62535 12.1057 5.55279C12.9032 3.95772 15.4096 1 18 1C20.3798 1 21.1972 3.21035 22.2389 4.99613C23.2632 6.75212 23.5244 9.02597 22.9702 11.2425C22.7077 12.2927 22.0355 13.3832 21.242 14.4025C20.4342 15.4402 19.4328 16.4891 18.4136 17.4605C16.3743 19.4042 14.1958 21.1022 13.1811 21.8683C12.4804 22.3974 11.5198 22.3974 10.8191 21.8683C9.80439 21.1022 7.62589 19.4042 5.58654 17.4605C4.56739 16.4891 3.56592 15.4402 2.75812 14.4025C1.96467 13.3832 1.29246 12.2927 1.02992 11.2425C0.475774 9.02597 0.736944 6.75213 1.76127 4.99613C2.80297 3.21035 4.12019 1 6.5 1C9.0904 1 11.097 3.95772 11.8945 5.55278C11.9308 5.62535 11.966 5.69784 12.0001 5.77011Z"/>
    </g>
  </symbol>



</svg>
